<svg xmlns="http://www.w3.org/2000/svg" viewBox="0 0 64 64">
  <defs>
    <linearGradient id="grad1" x1="0%" y1="0%" x2="100%" y2="100%">
      <stop offset="0%" style="stop-color:#8B5CF6;stop-opacity:1" />
      <stop offset="100%" style="stop-color:#EC4899;stop-opacity:1" />
    </linearGradient>
    <linearGradient id="grad2" x1="0%" y1="0%" x2="100%" y2="100%">
      <stop offset="0%" style="stop-color:#F59E0B;stop-opacity:1" />
      <stop offset="100%" style="stop-color:#EF4444;stop-opacity:1" />
    </linearGradient>
  </defs>
  <!-- Background circle -->
  <circle cx="32" cy="32" r="30" fill="url(#grad1)"/>
  <!-- Question mark -->
  <path d="M32 12c-7.2 0-13 4.8-13 10.7 0 2.2 1.8 4 4 4s4-1.8 4-4c0-1.5 2.2-2.7 5-2.7s5 1.2 5 2.7c0 1.8-1.5 2.5-4 4-3.5 2.1-6 4.5-6 8.3v1c0 2.2 1.8 4 4 4s4-1.8 4-4v-1c0-.5.5-1 2-2 4.5-2.7 8-5.5 8-10.3C45 16.8 39.2 12 32 12z" fill="white"/>
  <!-- Dot -->
  <circle cx="32" cy="50" r="4" fill="white"/>
  <!-- Sparkle effects -->
  <circle cx="50" cy="14" r="3" fill="url(#grad2)"/>
  <circle cx="14" cy="18" r="2" fill="#FCD34D"/>
  <circle cx="52" cy="48" r="2" fill="#34D399"/>
</svg>

